<svg version="1.0" xmlns="http://www.w3.org/2000/svg"
 width="40" height="40" viewBox="0 0 171.000000 171.000000"
 preserveAspectRatio="xMidYMid meet">
<g transform="translate(0.000000,171.000000) scale(0.100000,-0.100000)"
fill="#ef2f3e" stroke="white" stroke-width="45">
<path d="M775 1328 c-48 -133 -93 -252 -100 -264 -9 -14 -89 -48 -274 -114
-143 -52 -257 -97 -253 -100 4 -3 120 -43 257 -89 138 -46 256 -89 263 -96 7
-6 53 -128 102 -270 49 -141 91 -259 92 -260 2 -2 47 120 101 270 88 245 101
274 125 284 15 6 130 45 255 87 l229 77 -251 92 c-139 51 -254 94 -256 97 -3
2 -49 123 -103 267 l-99 263 -88 -244z"/>
</g>
</svg>
